<svg width="1366" height="24" viewBox="0 0 1366 24" fill="none" xmlns="http://www.w3.org/2000/svg">
<path d="M937.54 3.76074H934.569V12H933.357V3.76074H930.393V2.75781H937.54V3.76074ZM941.742 12.127C940.811 12.127 940.054 11.8223 939.47 11.2129C938.886 10.5993 938.594 9.78044 938.594 8.75635V8.54053C938.594 7.85921 938.723 7.25195 938.981 6.71875C939.244 6.18132 939.608 5.76237 940.073 5.46191C940.543 5.15723 941.051 5.00488 941.596 5.00488C942.489 5.00488 943.183 5.29899 943.679 5.88721C944.174 6.47542 944.421 7.31755 944.421 8.41357V8.90234H939.768C939.785 9.57943 939.982 10.1274 940.359 10.5464C940.74 10.9611 941.222 11.1685 941.806 11.1685C942.221 11.1685 942.572 11.0838 942.86 10.9146C943.147 10.7453 943.399 10.521 943.615 10.2417L944.332 10.8003C943.757 11.6847 942.894 12.127 941.742 12.127ZM941.596 5.96973C941.123 5.96973 940.725 6.14323 940.403 6.49023C940.082 6.83301 939.883 7.31543 939.806 7.9375H943.247V7.84863C943.213 7.25195 943.052 6.79069 942.764 6.46484C942.477 6.13477 942.087 5.96973 941.596 5.96973ZM949.906 6.18555C949.728 6.15592 949.535 6.14111 949.328 6.14111C948.558 6.14111 948.035 6.46908 947.76 7.125V12H946.586V5.13184H947.729L947.748 5.92529C948.133 5.31169 948.679 5.00488 949.385 5.00488C949.614 5.00488 949.787 5.03451 949.906 5.09375V6.18555ZM952.896 5.13184L952.927 5.89355C953.431 5.30111 954.11 5.00488 954.965 5.00488C955.926 5.00488 956.579 5.37305 956.926 6.10938C957.155 5.7793 957.451 5.5127 957.815 5.30957C958.183 5.10645 958.617 5.00488 959.116 5.00488C960.623 5.00488 961.389 5.80257 961.414 7.39795V12H960.24V7.46777C960.24 6.97689 960.128 6.61084 959.904 6.36963C959.679 6.12419 959.303 6.00146 958.774 6.00146C958.338 6.00146 957.976 6.13265 957.688 6.39502C957.4 6.65316 957.233 7.00228 957.187 7.44238V12H956.006V7.49951C956.006 6.50081 955.517 6.00146 954.54 6.00146C953.77 6.00146 953.243 6.32943 952.959 6.98535V12H951.785V5.13184H952.896ZM967.991 10.1782C967.991 9.86084 967.87 9.6154 967.629 9.44189C967.392 9.26416 966.975 9.11182 966.378 8.98486C965.786 8.85791 965.314 8.70557 964.963 8.52783C964.616 8.3501 964.358 8.13851 964.188 7.89307C964.023 7.64762 963.941 7.35563 963.941 7.01709C963.941 6.45426 964.178 5.97819 964.652 5.58887C965.13 5.19954 965.739 5.00488 966.48 5.00488C967.259 5.00488 967.889 5.20589 968.371 5.60791C968.858 6.00993 969.101 6.52409 969.101 7.15039H967.921C967.921 6.82878 967.783 6.5516 967.508 6.31885C967.237 6.0861 966.895 5.96973 966.48 5.96973C966.052 5.96973 965.718 6.06283 965.477 6.24902C965.236 6.43522 965.115 6.67855 965.115 6.979C965.115 7.26253 965.227 7.47624 965.452 7.62012C965.676 7.764 966.08 7.90153 966.664 8.03271C967.252 8.1639 967.728 8.32048 968.092 8.50244C968.456 8.68441 968.725 8.90446 968.898 9.1626C969.076 9.4165 969.165 9.72754 969.165 10.0957C969.165 10.7093 968.92 11.2023 968.429 11.5747C967.938 11.9429 967.301 12.127 966.518 12.127C965.968 12.127 965.481 12.0296 965.058 11.835C964.635 11.6403 964.303 11.3695 964.061 11.0225C963.824 10.6712 963.706 10.2925 963.706 9.88623H964.88C964.901 10.2798 965.058 10.5929 965.35 10.8257C965.646 11.0542 966.036 11.1685 966.518 11.1685C966.962 11.1685 967.318 11.0796 967.584 10.9019C967.855 10.7199 967.991 10.4787 967.991 10.1782ZM975.272 9.51807C975.272 9.07373 975.394 8.66536 975.64 8.29297C975.89 7.92057 976.364 7.48682 977.062 6.9917C976.651 6.49235 976.376 6.09033 976.237 5.78564C976.097 5.48096 976.027 5.17839 976.027 4.87793C976.027 4.17546 976.235 3.62533 976.649 3.22754C977.064 2.82975 977.627 2.63086 978.338 2.63086C978.972 2.63086 979.497 2.81706 979.912 3.18945C980.327 3.55762 980.534 4.02311 980.534 4.58594C980.534 4.95833 980.439 5.30322 980.248 5.62061C980.062 5.93376 979.734 6.26383 979.264 6.61084L978.585 7.1123L980.642 9.56885C980.93 9.01872 981.074 8.40723 981.074 7.73438H982.134C982.134 8.81348 981.873 9.7085 981.353 10.4194L982.673 12H981.264L980.648 11.27C980.335 11.5493 979.967 11.763 979.544 11.9111C979.125 12.055 978.697 12.127 978.262 12.127C977.36 12.127 976.637 11.8879 976.091 11.4097C975.545 10.9315 975.272 10.3009 975.272 9.51807ZM978.262 11.1685C978.884 11.1685 979.453 10.9315 979.969 10.4575L977.716 7.75977L977.506 7.91211C976.799 8.43262 976.446 8.96794 976.446 9.51807C976.446 10.0174 976.607 10.4173 976.929 10.7178C977.254 11.0182 977.699 11.1685 978.262 11.1685ZM977.201 4.83984C977.201 5.24609 977.451 5.75391 977.95 6.36328L978.7 5.83643C978.987 5.6333 979.184 5.44076 979.29 5.25879C979.396 5.07259 979.449 4.84831 979.449 4.58594C979.449 4.30241 979.343 4.06755 979.131 3.88135C978.92 3.69092 978.653 3.5957 978.331 3.5957C977.984 3.5957 977.709 3.71419 977.506 3.95117C977.303 4.18392 977.201 4.48014 977.201 4.83984ZM995.413 9.06738C995.299 10.0449 994.937 10.8003 994.328 11.3335C993.723 11.8625 992.917 12.127 991.909 12.127C990.818 12.127 989.942 11.7355 989.281 10.9526C988.626 10.1698 988.298 9.1224 988.298 7.81055V6.92188C988.298 6.06283 988.45 5.30745 988.755 4.65576C989.064 4.00407 989.499 3.50472 990.062 3.15771C990.625 2.80648 991.277 2.63086 992.017 2.63086C992.999 2.63086 993.786 2.90592 994.379 3.45605C994.971 4.00195 995.316 4.75944 995.413 5.72852H994.188C994.082 4.99219 993.852 4.45898 993.496 4.12891C993.145 3.79883 992.652 3.63379 992.017 3.63379C991.239 3.63379 990.627 3.92155 990.183 4.49707C989.743 5.07259 989.523 5.89144 989.523 6.95361V7.84863C989.523 8.85156 989.732 9.64925 990.151 10.2417C990.57 10.8341 991.156 11.1304 991.909 11.1304C992.586 11.1304 993.105 10.978 993.465 10.6733C993.828 10.3644 994.07 9.8291 994.188 9.06738H995.413ZM997.388 8.50244C997.388 7.82959 997.519 7.22445 997.781 6.68701C998.048 6.14958 998.416 5.73486 998.886 5.44287C999.36 5.15088 999.899 5.00488 1000.5 5.00488C1001.44 5.00488 1002.19 5.32861 1002.77 5.97607C1003.35 6.62354 1003.64 7.4847 1003.64 8.55957V8.64209C1003.64 9.31071 1003.51 9.91162 1003.25 10.4448C1003 10.9738 1002.63 11.3864 1002.15 11.6826C1001.68 11.9788 1001.13 12.127 1000.52 12.127C999.586 12.127 998.831 11.8032 998.251 11.1558C997.675 10.5083 997.388 9.65137 997.388 8.58496V8.50244ZM998.568 8.64209C998.568 9.40381 998.744 10.0153 999.095 10.4766C999.451 10.9378 999.925 11.1685 1000.52 11.1685C1001.11 11.1685 1001.59 10.9357 1001.94 10.4702C1002.29 10.0005 1002.47 9.34456 1002.47 8.50244C1002.47 7.74919 1002.29 7.13981 1001.93 6.67432C1001.57 6.20459 1001.1 5.96973 1000.5 5.96973C999.925 5.96973 999.457 6.20036 999.101 6.66162C998.746 7.12288 998.568 7.78304 998.568 8.64209ZM1007.02 5.13184L1007.06 5.99512C1007.59 5.33496 1008.27 5.00488 1009.12 5.00488C1010.57 5.00488 1011.3 5.82373 1011.31 7.46143V12H1010.14V7.45508C1010.14 6.95996 1010.02 6.59391 1009.8 6.35693C1009.58 6.11995 1009.23 6.00146 1008.76 6.00146C1008.38 6.00146 1008.05 6.10303 1007.76 6.30615C1007.47 6.50928 1007.25 6.77588 1007.09 7.10596V12H1005.91V5.13184H1007.02ZM1013.6 8.50879C1013.6 7.45508 1013.85 6.60872 1014.35 5.96973C1014.85 5.3265 1015.5 5.00488 1016.31 5.00488C1017.11 5.00488 1017.75 5.27995 1018.22 5.83008V2.25H1019.4V12H1018.32L1018.26 11.2637C1017.79 11.8392 1017.14 12.127 1016.3 12.127C1015.5 12.127 1014.85 11.8011 1014.35 11.1494C1013.85 10.4977 1013.6 9.64714 1013.6 8.59766V8.50879ZM1014.77 8.64209C1014.77 9.42074 1014.94 10.0301 1015.26 10.4702C1015.58 10.9103 1016.02 11.1304 1016.59 11.1304C1017.33 11.1304 1017.88 10.7961 1018.22 10.1274V6.97266C1017.87 6.3252 1017.33 6.00146 1016.6 6.00146C1016.03 6.00146 1015.58 6.22363 1015.26 6.66797C1014.94 7.1123 1014.77 7.77035 1014.77 8.64209ZM1023.3 12H1022.12V5.13184H1023.3V12ZM1022.03 3.31006C1022.03 3.11963 1022.09 2.95882 1022.2 2.82764C1022.32 2.69645 1022.49 2.63086 1022.72 2.63086C1022.95 2.63086 1023.12 2.69645 1023.24 2.82764C1023.36 2.95882 1023.42 3.11963 1023.42 3.31006C1023.42 3.50049 1023.36 3.65918 1023.24 3.78613C1023.12 3.91309 1022.95 3.97656 1022.72 3.97656C1022.49 3.97656 1022.32 3.91309 1022.2 3.78613C1022.09 3.65918 1022.03 3.50049 1022.03 3.31006ZM1027.58 3.46875V5.13184H1028.86V6.03955H1027.58V10.2988C1027.58 10.5739 1027.63 10.7812 1027.75 10.9209C1027.86 11.0563 1028.06 11.124 1028.33 11.124C1028.47 11.124 1028.65 11.0986 1028.89 11.0479V12C1028.58 12.0846 1028.28 12.127 1027.99 12.127C1027.47 12.127 1027.07 11.9683 1026.8 11.6509C1026.54 11.3335 1026.4 10.8828 1026.4 10.2988V6.03955H1025.15V5.13184H1026.4V3.46875H1027.58ZM1032.31 12H1031.14V5.13184H1032.31V12ZM1031.04 3.31006C1031.04 3.11963 1031.1 2.95882 1031.22 2.82764C1031.33 2.69645 1031.51 2.63086 1031.74 2.63086C1031.96 2.63086 1032.14 2.69645 1032.26 2.82764C1032.37 2.95882 1032.43 3.11963 1032.43 3.31006C1032.43 3.50049 1032.37 3.65918 1032.26 3.78613C1032.14 3.91309 1031.96 3.97656 1031.74 3.97656C1031.51 3.97656 1031.33 3.91309 1031.22 3.78613C1031.1 3.65918 1031.04 3.50049 1031.04 3.31006ZM1034.69 8.50244C1034.69 7.82959 1034.82 7.22445 1035.08 6.68701C1035.35 6.14958 1035.72 5.73486 1036.19 5.44287C1036.66 5.15088 1037.2 5.00488 1037.8 5.00488C1038.74 5.00488 1039.49 5.32861 1040.07 5.97607C1040.65 6.62354 1040.94 7.4847 1040.94 8.55957V8.64209C1040.94 9.31071 1040.81 9.91162 1040.55 10.4448C1040.3 10.9738 1039.93 11.3864 1039.45 11.6826C1038.98 11.9788 1038.43 12.127 1037.82 12.127C1036.89 12.127 1036.13 11.8032 1035.55 11.1558C1034.98 10.5083 1034.69 9.65137 1034.69 8.58496V8.50244ZM1035.87 8.64209C1035.87 9.40381 1036.04 10.0153 1036.4 10.4766C1036.75 10.9378 1037.22 11.1685 1037.82 11.1685C1038.41 11.1685 1038.89 10.9357 1039.24 10.4702C1039.59 10.0005 1039.77 9.34456 1039.77 8.50244C1039.77 7.74919 1039.59 7.13981 1039.23 6.67432C1038.87 6.20459 1038.4 5.96973 1037.8 5.96973C1037.22 5.96973 1036.76 6.20036 1036.4 6.66162C1036.05 7.12288 1035.87 7.78304 1035.87 8.64209ZM1044.32 5.13184L1044.36 5.99512C1044.89 5.33496 1045.57 5.00488 1046.42 5.00488C1047.87 5.00488 1048.6 5.82373 1048.61 7.46143V12H1047.44V7.45508C1047.44 6.95996 1047.32 6.59391 1047.1 6.35693C1046.88 6.11995 1046.53 6.00146 1046.06 6.00146C1045.68 6.00146 1045.35 6.10303 1045.06 6.30615C1044.77 6.50928 1044.55 6.77588 1044.39 7.10596V12H1043.21V5.13184H1044.32ZM1055.18 10.1782C1055.18 9.86084 1055.06 9.6154 1054.82 9.44189C1054.59 9.26416 1054.17 9.11182 1053.57 8.98486C1052.98 8.85791 1052.51 8.70557 1052.16 8.52783C1051.81 8.3501 1051.55 8.13851 1051.38 7.89307C1051.22 7.64762 1051.13 7.35563 1051.13 7.01709C1051.13 6.45426 1051.37 5.97819 1051.85 5.58887C1052.32 5.19954 1052.93 5.00488 1053.67 5.00488C1054.45 5.00488 1055.08 5.20589 1055.57 5.60791C1056.05 6.00993 1056.3 6.52409 1056.3 7.15039H1055.11C1055.11 6.82878 1054.98 6.5516 1054.7 6.31885C1054.43 6.0861 1054.09 5.96973 1053.67 5.96973C1053.25 5.96973 1052.91 6.06283 1052.67 6.24902C1052.43 6.43522 1052.31 6.67855 1052.31 6.979C1052.31 7.26253 1052.42 7.47624 1052.65 7.62012C1052.87 7.764 1053.27 7.90153 1053.86 8.03271C1054.45 8.1639 1054.92 8.32048 1055.29 8.50244C1055.65 8.68441 1055.92 8.90446 1056.09 9.1626C1056.27 9.4165 1056.36 9.72754 1056.36 10.0957C1056.36 10.7093 1056.11 11.2023 1055.62 11.5747C1055.13 11.9429 1054.49 12.127 1053.71 12.127C1053.16 12.127 1052.68 12.0296 1052.25 11.835C1051.83 11.6403 1051.5 11.3695 1051.26 11.0225C1051.02 10.6712 1050.9 10.2925 1050.9 9.88623H1052.07C1052.1 10.2798 1052.25 10.5929 1052.54 10.8257C1052.84 11.0542 1053.23 11.1685 1053.71 11.1685C1054.16 11.1685 1054.51 11.0796 1054.78 10.9019C1055.05 10.7199 1055.18 10.4787 1055.18 10.1782Z" fill="#707A7F"/>
<path d="M1232.85 7.88037C1231.8 7.57992 1231.04 7.21175 1230.56 6.77588C1230.09 6.33577 1229.85 5.79411 1229.85 5.15088C1229.85 4.42301 1230.14 3.8221 1230.72 3.34814C1231.31 2.86995 1232.06 2.63086 1232.99 2.63086C1233.63 2.63086 1234.19 2.75358 1234.69 2.99902C1235.19 3.24447 1235.57 3.58301 1235.84 4.01465C1236.12 4.44629 1236.26 4.91813 1236.26 5.43018H1235.03C1235.03 4.87158 1234.85 4.43359 1234.5 4.11621C1234.14 3.7946 1233.64 3.63379 1232.99 3.63379C1232.39 3.63379 1231.92 3.76709 1231.59 4.03369C1231.25 4.29606 1231.08 4.66211 1231.08 5.13184C1231.08 5.50846 1231.24 5.82796 1231.56 6.09033C1231.88 6.34847 1232.43 6.58545 1233.19 6.80127C1233.96 7.01709 1234.56 7.25618 1234.99 7.51855C1235.43 7.77669 1235.75 8.07926 1235.96 8.42627C1236.17 8.77327 1236.28 9.18164 1236.28 9.65137C1236.28 10.4004 1235.98 11.0013 1235.4 11.4541C1234.82 11.9027 1234.04 12.127 1233.06 12.127C1232.42 12.127 1231.83 12.0063 1231.28 11.7651C1230.73 11.5197 1230.3 11.1854 1230 10.7622C1229.71 10.339 1229.56 9.85872 1229.56 9.32129H1230.79C1230.79 9.87988 1230.99 10.3221 1231.4 10.6479C1231.82 10.9696 1232.37 11.1304 1233.06 11.1304C1233.7 11.1304 1234.19 10.9992 1234.54 10.7368C1234.88 10.4744 1235.05 10.1169 1235.05 9.66406C1235.05 9.21126 1234.89 8.86214 1234.57 8.6167C1234.26 8.36702 1233.68 8.12158 1232.85 7.88037ZM1239.74 12H1238.56V5.13184H1239.74V12ZM1238.47 3.31006C1238.47 3.11963 1238.52 2.95882 1238.64 2.82764C1238.76 2.69645 1238.93 2.63086 1239.16 2.63086C1239.39 2.63086 1239.56 2.69645 1239.68 2.82764C1239.8 2.95882 1239.86 3.11963 1239.86 3.31006C1239.86 3.50049 1239.8 3.65918 1239.68 3.78613C1239.56 3.91309 1239.39 3.97656 1239.16 3.97656C1238.93 3.97656 1238.76 3.91309 1238.64 3.78613C1238.52 3.65918 1238.47 3.50049 1238.47 3.31006ZM1244.01 3.46875V5.13184H1245.3V6.03955H1244.01V10.2988C1244.01 10.5739 1244.07 10.7812 1244.19 10.9209C1244.3 11.0563 1244.49 11.124 1244.77 11.124C1244.9 11.124 1245.09 11.0986 1245.33 11.0479V12C1245.02 12.0846 1244.72 12.127 1244.43 12.127C1243.9 12.127 1243.51 11.9683 1243.24 11.6509C1242.97 11.3335 1242.84 10.8828 1242.84 10.2988V6.03955H1241.59V5.13184H1242.84V3.46875H1244.01ZM1250.32 12.127C1249.39 12.127 1248.64 11.8223 1248.05 11.2129C1247.47 10.5993 1247.18 9.78044 1247.18 8.75635V8.54053C1247.18 7.85921 1247.3 7.25195 1247.56 6.71875C1247.83 6.18132 1248.19 5.76237 1248.65 5.46191C1249.12 5.15723 1249.63 5.00488 1250.18 5.00488C1251.07 5.00488 1251.76 5.29899 1252.26 5.88721C1252.76 6.47542 1253 7.31755 1253 8.41357V8.90234H1248.35C1248.37 9.57943 1248.56 10.1274 1248.94 10.5464C1249.32 10.9611 1249.8 11.1685 1250.39 11.1685C1250.8 11.1685 1251.15 11.0838 1251.44 10.9146C1251.73 10.7453 1251.98 10.521 1252.2 10.2417L1252.91 10.8003C1252.34 11.6847 1251.47 12.127 1250.32 12.127ZM1250.18 5.96973C1249.7 5.96973 1249.31 6.14323 1248.98 6.49023C1248.66 6.83301 1248.46 7.31543 1248.39 7.9375H1251.83V7.84863C1251.79 7.25195 1251.63 6.79069 1251.35 6.46484C1251.06 6.13477 1250.67 5.96973 1250.18 5.96973ZM1265.01 8.64209C1265.01 9.69157 1264.77 10.5358 1264.28 11.1748C1263.8 11.8096 1263.15 12.127 1262.34 12.127C1261.47 12.127 1260.8 11.8201 1260.33 11.2065L1260.27 12H1259.19V2.25H1260.37V5.88721C1260.84 5.29899 1261.49 5.00488 1262.33 5.00488C1263.16 5.00488 1263.82 5.32015 1264.29 5.95068C1264.77 6.58122 1265.01 7.4445 1265.01 8.54053V8.64209ZM1263.83 8.50879C1263.83 7.70898 1263.68 7.09115 1263.37 6.65527C1263.06 6.2194 1262.62 6.00146 1262.04 6.00146C1261.26 6.00146 1260.7 6.36117 1260.37 7.08057V10.0513C1260.73 10.7707 1261.29 11.1304 1262.05 11.1304C1262.61 11.1304 1263.05 10.9124 1263.36 10.4766C1263.68 10.0407 1263.83 9.38477 1263.83 8.50879ZM1269.46 10.2798L1271.06 5.13184H1272.32L1269.56 13.0601C1269.13 14.2026 1268.45 14.7739 1267.52 14.7739L1267.3 14.7549L1266.86 14.6724V13.7202L1267.18 13.7456C1267.58 13.7456 1267.88 13.6652 1268.1 13.5044C1268.33 13.3436 1268.51 13.0495 1268.66 12.6221L1268.92 11.9238L1266.47 5.13184H1267.75L1269.46 10.2798ZM1278.38 12V2.75781H1280.99C1281.79 2.75781 1282.51 2.93555 1283.12 3.29102C1283.74 3.64648 1284.22 4.15218 1284.55 4.80811C1284.89 5.46403 1285.06 6.21729 1285.07 7.06787V7.6582C1285.07 8.52995 1284.9 9.29378 1284.56 9.94971C1284.22 10.6056 1283.74 11.1092 1283.12 11.4604C1282.49 11.8117 1281.77 11.9915 1280.94 12H1278.38ZM1279.6 3.76074V11.0034H1280.88C1281.82 11.0034 1282.55 10.7114 1283.07 10.1274C1283.6 9.54346 1283.86 8.71191 1283.86 7.63281V7.09326C1283.86 6.04378 1283.61 5.22917 1283.12 4.64941C1282.63 4.06543 1281.93 3.76921 1281.02 3.76074H1279.6ZM1290.38 12.127C1289.45 12.127 1288.69 11.8223 1288.11 11.2129C1287.52 10.5993 1287.23 9.78044 1287.23 8.75635V8.54053C1287.23 7.85921 1287.36 7.25195 1287.62 6.71875C1287.88 6.18132 1288.24 5.76237 1288.71 5.46191C1289.18 5.15723 1289.69 5.00488 1290.23 5.00488C1291.13 5.00488 1291.82 5.29899 1292.31 5.88721C1292.81 6.47542 1293.06 7.31755 1293.06 8.41357V8.90234H1288.4C1288.42 9.57943 1288.62 10.1274 1289 10.5464C1289.38 10.9611 1289.86 11.1685 1290.44 11.1685C1290.86 11.1685 1291.21 11.0838 1291.5 10.9146C1291.78 10.7453 1292.04 10.521 1292.25 10.2417L1292.97 10.8003C1292.39 11.6847 1291.53 12.127 1290.38 12.127ZM1290.23 5.96973C1289.76 5.96973 1289.36 6.14323 1289.04 6.49023C1288.72 6.83301 1288.52 7.31543 1288.44 7.9375H1291.88V7.84863C1291.85 7.25195 1291.69 6.79069 1291.4 6.46484C1291.11 6.13477 1290.72 5.96973 1290.23 5.96973ZM1301.02 8.64209C1301.02 9.68734 1300.78 10.5295 1300.31 11.1685C1299.83 11.8075 1299.18 12.127 1298.36 12.127C1297.53 12.127 1296.87 11.8625 1296.4 11.3335V14.6406H1295.22V5.13184H1296.3L1296.35 5.89355C1296.83 5.30111 1297.49 5.00488 1298.35 5.00488C1299.17 5.00488 1299.82 5.31592 1300.3 5.93799C1300.78 6.56006 1301.02 7.42546 1301.02 8.53418V8.64209ZM1299.85 8.50879C1299.85 7.73438 1299.68 7.12288 1299.35 6.67432C1299.02 6.22575 1298.57 6.00146 1298 6.00146C1297.29 6.00146 1296.75 6.31673 1296.4 6.94727V10.229C1296.75 10.8553 1297.29 11.1685 1298.01 11.1685C1298.57 11.1685 1299.02 10.9463 1299.35 10.502C1299.68 10.0534 1299.85 9.389 1299.85 8.50879ZM1307.56 12C1307.49 11.8646 1307.44 11.6234 1307.4 11.2764C1306.85 11.8434 1306.2 12.127 1305.44 12.127C1304.77 12.127 1304.21 11.9365 1303.77 11.5557C1303.34 11.1706 1303.13 10.6839 1303.13 10.0957C1303.13 9.38053 1303.4 8.82617 1303.94 8.43262C1304.48 8.03483 1305.25 7.83594 1306.24 7.83594H1307.38V7.29639C1307.38 6.8859 1307.26 6.56006 1307.01 6.31885C1306.76 6.0734 1306.4 5.95068 1305.92 5.95068C1305.51 5.95068 1305.15 6.05648 1304.87 6.26807C1304.59 6.47965 1304.45 6.73568 1304.45 7.03613H1303.26C1303.26 6.69336 1303.39 6.36328 1303.63 6.0459C1303.87 5.72428 1304.2 5.47038 1304.62 5.28418C1305.04 5.09798 1305.5 5.00488 1305.99 5.00488C1306.79 5.00488 1307.41 5.20378 1307.85 5.60156C1308.3 5.99512 1308.54 6.5389 1308.55 7.23291V10.394C1308.55 11.0246 1308.63 11.526 1308.79 11.8984V12H1307.56ZM1305.61 11.105C1305.98 11.105 1306.33 11.0098 1306.66 10.8193C1306.99 10.6289 1307.23 10.3813 1307.38 10.0767V8.66748H1306.46C1305.02 8.66748 1304.3 9.08854 1304.3 9.93066C1304.3 10.2988 1304.42 10.5866 1304.67 10.7939C1304.91 11.0013 1305.23 11.105 1305.61 11.105ZM1314.51 6.18555C1314.34 6.15592 1314.14 6.14111 1313.94 6.14111C1313.17 6.14111 1312.64 6.46908 1312.37 7.125V12H1311.19V5.13184H1312.34L1312.35 5.92529C1312.74 5.31169 1313.29 5.00488 1313.99 5.00488C1314.22 5.00488 1314.39 5.03451 1314.51 5.09375V6.18555ZM1318.31 3.46875V5.13184H1319.59V6.03955H1318.31V10.2988C1318.31 10.5739 1318.37 10.7812 1318.48 10.9209C1318.59 11.0563 1318.79 11.124 1319.06 11.124C1319.2 11.124 1319.39 11.0986 1319.62 11.0479V12C1319.31 12.0846 1319.01 12.127 1318.72 12.127C1318.2 12.127 1317.8 11.9683 1317.53 11.6509C1317.27 11.3335 1317.13 10.8828 1317.13 10.2988V6.03955H1315.88V5.13184H1317.13V3.46875H1318.31ZM1322.87 5.13184L1322.91 5.89355C1323.41 5.30111 1324.09 5.00488 1324.94 5.00488C1325.9 5.00488 1326.56 5.37305 1326.9 6.10938C1327.13 5.7793 1327.43 5.5127 1327.79 5.30957C1328.16 5.10645 1328.59 5.00488 1329.09 5.00488C1330.6 5.00488 1331.37 5.80257 1331.39 7.39795V12H1330.22V7.46777C1330.22 6.97689 1330.11 6.61084 1329.88 6.36963C1329.66 6.12419 1329.28 6.00146 1328.75 6.00146C1328.32 6.00146 1327.95 6.13265 1327.67 6.39502C1327.38 6.65316 1327.21 7.00228 1327.16 7.44238V12H1325.98V7.49951C1325.98 6.50081 1325.5 6.00146 1324.52 6.00146C1323.75 6.00146 1323.22 6.32943 1322.94 6.98535V12H1321.76V5.13184H1322.87ZM1336.82 12.127C1335.89 12.127 1335.13 11.8223 1334.55 11.2129C1333.96 10.5993 1333.67 9.78044 1333.67 8.75635V8.54053C1333.67 7.85921 1333.8 7.25195 1334.06 6.71875C1334.32 6.18132 1334.68 5.76237 1335.15 5.46191C1335.62 5.15723 1336.13 5.00488 1336.67 5.00488C1337.57 5.00488 1338.26 5.29899 1338.76 5.88721C1339.25 6.47542 1339.5 7.31755 1339.5 8.41357V8.90234H1334.85C1334.86 9.57943 1335.06 10.1274 1335.44 10.5464C1335.82 10.9611 1336.3 11.1685 1336.88 11.1685C1337.3 11.1685 1337.65 11.0838 1337.94 10.9146C1338.22 10.7453 1338.48 10.521 1338.69 10.2417L1339.41 10.8003C1338.83 11.6847 1337.97 12.127 1336.82 12.127ZM1336.67 5.96973C1336.2 5.96973 1335.8 6.14323 1335.48 6.49023C1335.16 6.83301 1334.96 7.31543 1334.88 7.9375H1338.32V7.84863C1338.29 7.25195 1338.13 6.79069 1337.84 6.46484C1337.55 6.13477 1337.16 5.96973 1336.67 5.96973ZM1342.77 5.13184L1342.81 5.99512C1343.34 5.33496 1344.02 5.00488 1344.87 5.00488C1346.32 5.00488 1347.05 5.82373 1347.06 7.46143V12H1345.89V7.45508C1345.89 6.95996 1345.77 6.59391 1345.55 6.35693C1345.33 6.11995 1344.98 6.00146 1344.51 6.00146C1344.13 6.00146 1343.8 6.10303 1343.51 6.30615C1343.22 6.50928 1343 6.77588 1342.84 7.10596V12H1341.66V5.13184H1342.77ZM1351.23 3.46875V5.13184H1352.51V6.03955H1351.23V10.2988C1351.23 10.5739 1351.29 10.7812 1351.4 10.9209C1351.51 11.0563 1351.71 11.124 1351.98 11.124C1352.12 11.124 1352.31 11.0986 1352.54 11.0479V12C1352.23 12.0846 1351.93 12.127 1351.64 12.127C1351.12 12.127 1350.72 11.9683 1350.45 11.6509C1350.19 11.3335 1350.05 10.8828 1350.05 10.2988V6.03955H1348.8V5.13184H1350.05V3.46875H1351.23Z" fill="black"/>
<path d="M776.003 8.21045C776.003 8.85791 775.819 9.35303 775.45 9.6958C775.086 10.0343 774.57 10.2036 773.902 10.2036C773.237 10.2036 772.704 9.98145 772.302 9.53711C771.904 9.08854 771.705 8.47917 771.705 7.70898V7.01074C771.705 6.26595 771.906 5.67139 772.308 5.22705C772.715 4.77848 773.246 4.5542 773.902 4.5542C774.579 4.5542 775.099 4.7277 775.463 5.07471C775.827 5.42171 776.009 5.91048 776.009 6.54102H775.082C775.082 6.12207 774.981 5.82373 774.778 5.646C774.579 5.46403 774.287 5.37305 773.902 5.37305C773.504 5.37305 773.191 5.51904 772.962 5.81104C772.734 6.10303 772.619 6.50928 772.619 7.02979V7.74707C772.619 8.25488 772.734 8.65479 772.962 8.94678C773.191 9.23877 773.504 9.38477 773.902 9.38477C774.291 9.38477 774.583 9.2959 774.778 9.11816C774.976 8.94043 775.076 8.63786 775.076 8.21045H776.003ZM770.207 7.37256C770.207 8.10042 770.377 8.77539 770.715 9.39746C771.054 10.0153 771.513 10.4998 772.092 10.8511C772.676 11.2023 773.307 11.3779 773.984 11.3779C774.661 11.3779 775.29 11.2023 775.869 10.8511C776.449 10.4998 776.908 10.0153 777.247 9.39746C777.585 8.77539 777.755 8.10042 777.755 7.37256C777.755 6.65316 777.587 5.98665 777.253 5.37305C776.919 4.75944 776.46 4.27702 775.876 3.92578C775.296 3.57031 774.665 3.39258 773.984 3.39258C773.307 3.39258 772.676 3.5682 772.092 3.91943C771.508 4.26644 771.047 4.74886 770.709 5.3667C770.374 5.98454 770.207 6.65316 770.207 7.37256ZM769.477 7.37256C769.477 6.51774 769.674 5.72428 770.068 4.99219C770.465 4.26009 771.013 3.68457 771.712 3.26562C772.414 2.84245 773.172 2.63086 773.984 2.63086C774.797 2.63086 775.552 2.84245 776.25 3.26562C776.948 3.68457 777.494 4.26009 777.888 4.99219C778.286 5.72428 778.485 6.51774 778.485 7.37256C778.485 8.20622 778.294 8.98698 777.913 9.71484C777.532 10.4427 776.991 11.0288 776.288 11.4731C775.59 11.9132 774.822 12.1333 773.984 12.1333C773.15 12.1333 772.382 11.9154 771.68 11.4795C770.982 11.0394 770.44 10.4554 770.055 9.72754C769.67 8.99967 769.477 8.21468 769.477 7.37256ZM786.743 12H780.687V11.1558L783.887 7.60107C784.361 7.06364 784.686 6.62777 784.864 6.29346C785.046 5.95492 785.137 5.60579 785.137 5.24609C785.137 4.76367 784.991 4.368 784.699 4.05908C784.407 3.75016 784.018 3.5957 783.531 3.5957C782.947 3.5957 782.492 3.76286 782.166 4.09717C781.845 4.42725 781.684 4.88851 781.684 5.48096H780.51C780.51 4.63037 780.783 3.94271 781.329 3.41797C781.879 2.89323 782.613 2.63086 783.531 2.63086C784.39 2.63086 785.069 2.85726 785.569 3.31006C786.068 3.75863 786.318 4.35742 786.318 5.10645C786.318 6.01628 785.738 7.09961 784.579 8.35645L782.103 11.0415H786.743V12ZM794.583 8.05811C794.583 9.43343 794.348 10.4554 793.878 11.124C793.408 11.7926 792.674 12.127 791.675 12.127C790.689 12.127 789.959 11.8011 789.485 11.1494C789.011 10.4935 788.766 9.51595 788.749 8.2168V6.64893C788.749 5.29053 788.984 4.28125 789.454 3.62109C789.923 2.96094 790.66 2.63086 791.663 2.63086C792.657 2.63086 793.389 2.95036 793.859 3.58936C794.329 4.22412 794.57 5.20589 794.583 6.53467V8.05811ZM793.408 6.45215C793.408 5.45768 793.269 4.73405 792.989 4.28125C792.71 3.82422 792.268 3.5957 791.663 3.5957C791.062 3.5957 790.624 3.8221 790.349 4.2749C790.074 4.7277 789.932 5.42383 789.923 6.36328V8.24219C789.923 9.24089 790.067 9.97933 790.355 10.4575C790.647 10.9315 791.087 11.1685 791.675 11.1685C792.255 11.1685 792.685 10.9442 792.964 10.4956C793.247 10.047 793.396 9.34033 793.408 8.37549V6.45215ZM802.943 12H796.887V11.1558L800.086 7.60107C800.56 7.06364 800.886 6.62777 801.064 6.29346C801.246 5.95492 801.337 5.60579 801.337 5.24609C801.337 4.76367 801.191 4.368 800.899 4.05908C800.607 3.75016 800.217 3.5957 799.731 3.5957C799.147 3.5957 798.692 3.76286 798.366 4.09717C798.044 4.42725 797.884 4.88851 797.884 5.48096H796.709C796.709 4.63037 796.982 3.94271 797.528 3.41797C798.078 2.89323 798.812 2.63086 799.731 2.63086C800.59 2.63086 801.269 2.85726 801.768 3.31006C802.268 3.75863 802.517 4.35742 802.517 5.10645C802.517 6.01628 801.938 7.09961 800.778 8.35645L798.303 11.0415H802.943V12ZM810.782 8.05811C810.782 9.43343 810.547 10.4554 810.078 11.124C809.608 11.7926 808.874 12.127 807.875 12.127C806.889 12.127 806.159 11.8011 805.685 11.1494C805.211 10.4935 804.966 9.51595 804.949 8.2168V6.64893C804.949 5.29053 805.184 4.28125 805.653 3.62109C806.123 2.96094 806.859 2.63086 807.862 2.63086C808.857 2.63086 809.589 2.95036 810.059 3.58936C810.528 4.22412 810.77 5.20589 810.782 6.53467V8.05811ZM809.608 6.45215C809.608 5.45768 809.468 4.73405 809.189 4.28125C808.91 3.82422 808.467 3.5957 807.862 3.5957C807.261 3.5957 806.823 3.8221 806.548 4.2749C806.273 4.7277 806.132 5.42383 806.123 6.36328V8.24219C806.123 9.24089 806.267 9.97933 806.555 10.4575C806.847 10.9315 807.287 11.1685 807.875 11.1685C808.455 11.1685 808.884 10.9442 809.164 10.4956C809.447 10.047 809.595 9.34033 809.608 8.37549V6.45215ZM824.24 10.7876C823.926 11.2362 823.489 11.5726 822.926 11.7969C822.367 12.0169 821.715 12.127 820.971 12.127C820.217 12.127 819.549 11.9513 818.965 11.6001C818.381 11.2446 817.928 10.741 817.606 10.0894C817.289 9.43766 817.126 8.68229 817.118 7.82324V7.01709C817.118 5.62484 817.441 4.54574 818.089 3.77979C818.74 3.01383 819.655 2.63086 820.831 2.63086C821.796 2.63086 822.572 2.87842 823.161 3.37354C823.749 3.86442 824.108 4.56266 824.24 5.46826H823.021C822.792 4.24528 822.065 3.63379 820.837 3.63379C820.021 3.63379 819.401 3.92155 818.977 4.49707C818.558 5.06836 818.347 5.89779 818.343 6.98535V7.74072C818.343 8.77751 818.58 9.6027 819.054 10.2163C819.528 10.8257 820.169 11.1304 820.977 11.1304C821.434 11.1304 821.834 11.0796 822.177 10.978C822.519 10.8765 822.803 10.7051 823.027 10.4639V8.38818H820.888V7.39795H824.24V10.7876ZM830.213 6.18555C830.035 6.15592 829.843 6.14111 829.635 6.14111C828.865 6.14111 828.343 6.46908 828.067 7.125V12H826.893V5.13184H828.036L828.055 5.92529C828.44 5.31169 828.986 5.00488 829.692 5.00488C829.921 5.00488 830.095 5.03451 830.213 5.09375V6.18555ZM831.66 8.50244C831.66 7.82959 831.792 7.22445 832.054 6.68701C832.321 6.14958 832.689 5.73486 833.159 5.44287C833.632 5.15088 834.172 5.00488 834.777 5.00488C835.712 5.00488 836.468 5.32861 837.043 5.97607C837.623 6.62354 837.913 7.4847 837.913 8.55957V8.64209C837.913 9.31071 837.784 9.91162 837.526 10.4448C837.272 10.9738 836.906 11.3864 836.428 11.6826C835.954 11.9788 835.408 12.127 834.79 12.127C833.859 12.127 833.103 11.8032 832.524 11.1558C831.948 10.5083 831.66 9.65137 831.66 8.58496V8.50244ZM832.841 8.64209C832.841 9.40381 833.017 10.0153 833.368 10.4766C833.723 10.9378 834.197 11.1685 834.79 11.1685C835.387 11.1685 835.86 10.9357 836.212 10.4702C836.563 10.0005 836.739 9.34456 836.739 8.50244C836.739 7.74919 836.559 7.13981 836.199 6.67432C835.844 6.20459 835.37 5.96973 834.777 5.96973C834.197 5.96973 833.73 6.20036 833.374 6.66162C833.019 7.12288 832.841 7.78304 832.841 8.64209ZM842.35 10.4067L844.051 5.13184H845.251L842.788 12H841.893L839.405 5.13184H840.604L842.35 10.4067ZM849.942 12.127C849.011 12.127 848.254 11.8223 847.67 11.2129C847.086 10.5993 846.794 9.78044 846.794 8.75635V8.54053C846.794 7.85921 846.923 7.25195 847.181 6.71875C847.443 6.18132 847.807 5.76237 848.273 5.46191C848.742 5.15723 849.25 5.00488 849.796 5.00488C850.689 5.00488 851.383 5.29899 851.878 5.88721C852.373 6.47542 852.621 7.31755 852.621 8.41357V8.90234H847.968C847.985 9.57943 848.182 10.1274 848.558 10.5464C848.939 10.9611 849.422 11.1685 850.006 11.1685C850.42 11.1685 850.772 11.0838 851.059 10.9146C851.347 10.7453 851.599 10.521 851.815 10.2417L852.532 10.8003C851.956 11.6847 851.093 12.127 849.942 12.127ZM849.796 5.96973C849.322 5.96973 848.924 6.14323 848.603 6.49023C848.281 6.83301 848.082 7.31543 848.006 7.9375H851.446V7.84863C851.413 7.25195 851.252 6.79069 850.964 6.46484C850.676 6.13477 850.287 5.96973 849.796 5.96973ZM855.89 5.13184L855.922 5.89355C856.425 5.30111 857.105 5.00488 857.959 5.00488C858.92 5.00488 859.574 5.37305 859.921 6.10938C860.149 5.7793 860.446 5.5127 860.809 5.30957C861.178 5.10645 861.611 5.00488 862.111 5.00488C863.617 5.00488 864.383 5.80257 864.409 7.39795V12H863.234V7.46777C863.234 6.97689 863.122 6.61084 862.898 6.36963C862.674 6.12419 862.297 6.00146 861.768 6.00146C861.332 6.00146 860.97 6.13265 860.683 6.39502C860.395 6.65316 860.228 7.00228 860.181 7.44238V12H859V7.49951C859 6.50081 858.512 6.00146 857.534 6.00146C856.764 6.00146 856.237 6.32943 855.954 6.98535V12H854.779V5.13184H855.89ZM871.226 12C871.158 11.8646 871.103 11.6234 871.061 11.2764C870.515 11.8434 869.864 12.127 869.106 12.127C868.429 12.127 867.872 11.9365 867.437 11.5557C867.005 11.1706 866.789 10.6839 866.789 10.0957C866.789 9.38053 867.06 8.82617 867.602 8.43262C868.148 8.03483 868.914 7.83594 869.9 7.83594H871.042V7.29639C871.042 6.8859 870.919 6.56006 870.674 6.31885C870.428 6.0734 870.067 5.95068 869.588 5.95068C869.17 5.95068 868.818 6.05648 868.535 6.26807C868.251 6.47965 868.109 6.73568 868.109 7.03613H866.929C866.929 6.69336 867.049 6.36328 867.291 6.0459C867.536 5.72428 867.866 5.47038 868.281 5.28418C868.7 5.09798 869.159 5.00488 869.658 5.00488C870.45 5.00488 871.07 5.20378 871.518 5.60156C871.967 5.99512 872.199 6.5389 872.216 7.23291V10.394C872.216 11.0246 872.297 11.526 872.458 11.8984V12H871.226ZM869.277 11.105C869.646 11.105 869.995 11.0098 870.325 10.8193C870.655 10.6289 870.894 10.3813 871.042 10.0767V8.66748H870.122C868.683 8.66748 867.963 9.08854 867.963 9.93066C867.963 10.2988 868.086 10.5866 868.332 10.7939C868.577 11.0013 868.892 11.105 869.277 11.105ZM874.572 8.50879C874.572 7.45508 874.821 6.60872 875.321 5.96973C875.82 5.3265 876.474 5.00488 877.282 5.00488C878.086 5.00488 878.723 5.27995 879.193 5.83008V2.25H880.367V12H879.288L879.231 11.2637C878.761 11.8392 878.107 12.127 877.269 12.127C876.474 12.127 875.824 11.8011 875.321 11.1494C874.821 10.4977 874.572 9.64714 874.572 8.59766V8.50879ZM875.746 8.64209C875.746 9.42074 875.907 10.0301 876.228 10.4702C876.55 10.9103 876.994 11.1304 877.561 11.1304C878.306 11.1304 878.85 10.7961 879.193 10.1274V6.97266C878.841 6.3252 878.302 6.00146 877.574 6.00146C876.999 6.00146 876.55 6.22363 876.228 6.66797C875.907 7.1123 875.746 7.77035 875.746 8.64209ZM885.845 12.127C884.914 12.127 884.157 11.8223 883.573 11.2129C882.989 10.5993 882.697 9.78044 882.697 8.75635V8.54053C882.697 7.85921 882.826 7.25195 883.084 6.71875C883.346 6.18132 883.71 5.76237 884.176 5.46191C884.646 5.15723 885.153 5.00488 885.699 5.00488C886.592 5.00488 887.286 5.29899 887.781 5.88721C888.276 6.47542 888.524 7.31755 888.524 8.41357V8.90234H883.871C883.888 9.57943 884.085 10.1274 884.461 10.5464C884.842 10.9611 885.325 11.1685 885.909 11.1685C886.323 11.1685 886.675 11.0838 886.962 10.9146C887.25 10.7453 887.502 10.521 887.718 10.2417L888.435 10.8003C887.86 11.6847 886.996 12.127 885.845 12.127ZM885.699 5.96973C885.225 5.96973 884.827 6.14323 884.506 6.49023C884.184 6.83301 883.985 7.31543 883.909 7.9375H887.35V7.84863C887.316 7.25195 887.155 6.79069 886.867 6.46484C886.579 6.13477 886.19 5.96973 885.699 5.96973Z" fill="#707A7F"/>
<path d="M1100.86 8.38184V12H1099.64V2.75781H1103.05C1104.06 2.75781 1104.85 3.01595 1105.42 3.53223C1106 4.0485 1106.29 4.73193 1106.29 5.58252C1106.29 6.47965 1106.01 7.17155 1105.44 7.6582C1104.88 8.14062 1104.08 8.38184 1103.04 8.38184H1100.86ZM1100.86 7.38525H1103.05C1103.7 7.38525 1104.2 7.23291 1104.55 6.92822C1104.9 6.6193 1105.07 6.17497 1105.07 5.59521C1105.07 5.04508 1104.9 4.60498 1104.55 4.2749C1104.2 3.94482 1103.73 3.77344 1103.12 3.76074H1100.86V7.38525ZM1111.78 6.18555C1111.6 6.15592 1111.41 6.14111 1111.2 6.14111C1110.43 6.14111 1109.91 6.46908 1109.63 7.125V12H1108.46V5.13184H1109.6L1109.62 5.92529C1110.01 5.31169 1110.55 5.00488 1111.26 5.00488C1111.49 5.00488 1111.66 5.03451 1111.78 5.09375V6.18555ZM1114.94 12H1113.77V5.13184H1114.94V12ZM1113.67 3.31006C1113.67 3.11963 1113.73 2.95882 1113.84 2.82764C1113.96 2.69645 1114.13 2.63086 1114.36 2.63086C1114.59 2.63086 1114.76 2.69645 1114.88 2.82764C1115 2.95882 1115.06 3.11963 1115.06 3.31006C1115.06 3.50049 1115 3.65918 1114.88 3.78613C1114.76 3.91309 1114.59 3.97656 1114.36 3.97656C1114.13 3.97656 1113.96 3.91309 1113.84 3.78613C1113.73 3.65918 1113.67 3.50049 1113.67 3.31006ZM1119.89 10.4067L1121.59 5.13184H1122.79L1120.33 12H1119.43L1116.95 5.13184H1118.15L1119.89 10.4067ZM1128.86 12C1128.79 11.8646 1128.74 11.6234 1128.7 11.2764C1128.15 11.8434 1127.5 12.127 1126.74 12.127C1126.06 12.127 1125.51 11.9365 1125.07 11.5557C1124.64 11.1706 1124.42 10.6839 1124.42 10.0957C1124.42 9.38053 1124.69 8.82617 1125.24 8.43262C1125.78 8.03483 1126.55 7.83594 1127.53 7.83594H1128.68V7.29639C1128.68 6.8859 1128.55 6.56006 1128.31 6.31885C1128.06 6.0734 1127.7 5.95068 1127.22 5.95068C1126.8 5.95068 1126.45 6.05648 1126.17 6.26807C1125.89 6.47965 1125.74 6.73568 1125.74 7.03613H1124.56C1124.56 6.69336 1124.68 6.36328 1124.92 6.0459C1125.17 5.72428 1125.5 5.47038 1125.92 5.28418C1126.33 5.09798 1126.79 5.00488 1127.29 5.00488C1128.08 5.00488 1128.7 5.20378 1129.15 5.60156C1129.6 5.99512 1129.83 6.5389 1129.85 7.23291V10.394C1129.85 11.0246 1129.93 11.526 1130.09 11.8984V12H1128.86ZM1126.91 11.105C1127.28 11.105 1127.63 11.0098 1127.96 10.8193C1128.29 10.6289 1128.53 10.3813 1128.68 10.0767V8.66748H1127.76C1126.32 8.66748 1125.6 9.08854 1125.6 9.93066C1125.6 10.2988 1125.72 10.5866 1125.97 10.7939C1126.21 11.0013 1126.53 11.105 1126.91 11.105ZM1135.25 11.1685C1135.67 11.1685 1136.03 11.0415 1136.34 10.7876C1136.66 10.5337 1136.83 10.2163 1136.87 9.83545H1137.98C1137.95 10.229 1137.82 10.6035 1137.57 10.959C1137.32 11.3145 1136.99 11.598 1136.57 11.8096C1136.15 12.0212 1135.71 12.127 1135.25 12.127C1134.31 12.127 1133.57 11.8159 1133.01 11.1938C1132.46 10.5675 1132.19 9.71273 1132.19 8.62939V8.43262C1132.19 7.764 1132.31 7.16943 1132.56 6.64893C1132.8 6.12842 1133.15 5.72428 1133.61 5.43652C1134.07 5.14876 1134.61 5.00488 1135.24 5.00488C1136.01 5.00488 1136.65 5.23551 1137.16 5.69678C1137.67 6.15804 1137.94 6.75684 1137.98 7.49316H1136.87C1136.83 7.04883 1136.66 6.6849 1136.36 6.40137C1136.06 6.11361 1135.68 5.96973 1135.24 5.96973C1134.64 5.96973 1134.18 6.18555 1133.85 6.61719C1133.52 7.0446 1133.36 7.66455 1133.36 8.47705V8.69922C1133.36 9.49056 1133.52 10.0999 1133.85 10.5273C1134.18 10.9548 1134.64 11.1685 1135.25 11.1685ZM1142.34 10.2798L1143.94 5.13184H1145.2L1142.44 13.0601C1142.01 14.2026 1141.33 14.7739 1140.4 14.7739L1140.18 14.7549L1139.74 14.6724V13.7202L1140.06 13.7456C1140.46 13.7456 1140.76 13.6652 1140.98 13.5044C1141.21 13.3436 1141.39 13.0495 1141.54 12.6221L1141.8 11.9238L1139.35 5.13184H1140.63L1142.34 10.2798ZM1152.48 8.38184V12H1151.26V2.75781H1154.67C1155.68 2.75781 1156.47 3.01595 1157.04 3.53223C1157.62 4.0485 1157.91 4.73193 1157.91 5.58252C1157.91 6.47965 1157.63 7.17155 1157.06 7.6582C1156.51 8.14062 1155.7 8.38184 1154.66 8.38184H1152.48ZM1152.48 7.38525H1154.67C1155.32 7.38525 1155.82 7.23291 1156.17 6.92822C1156.52 6.6193 1156.69 6.17497 1156.69 5.59521C1156.69 5.04508 1156.52 4.60498 1156.17 4.2749C1155.82 3.94482 1155.35 3.77344 1154.74 3.76074H1152.48V7.38525ZM1159.68 8.50244C1159.68 7.82959 1159.81 7.22445 1160.07 6.68701C1160.34 6.14958 1160.71 5.73486 1161.18 5.44287C1161.65 5.15088 1162.19 5.00488 1162.8 5.00488C1163.73 5.00488 1164.49 5.32861 1165.06 5.97607C1165.64 6.62354 1165.93 7.4847 1165.93 8.55957V8.64209C1165.93 9.31071 1165.8 9.91162 1165.54 10.4448C1165.29 10.9738 1164.92 11.3864 1164.45 11.6826C1163.97 11.9788 1163.43 12.127 1162.81 12.127C1161.88 12.127 1161.12 11.8032 1160.54 11.1558C1159.97 10.5083 1159.68 9.65137 1159.68 8.58496V8.50244ZM1160.86 8.64209C1160.86 9.40381 1161.04 10.0153 1161.39 10.4766C1161.74 10.9378 1162.22 11.1685 1162.81 11.1685C1163.41 11.1685 1163.88 10.9357 1164.23 10.4702C1164.58 10.0005 1164.76 9.34456 1164.76 8.50244C1164.76 7.74919 1164.58 7.13981 1164.22 6.67432C1163.86 6.20459 1163.39 5.96973 1162.8 5.96973C1162.22 5.96973 1161.75 6.20036 1161.39 6.66162C1161.04 7.12288 1160.86 7.78304 1160.86 8.64209ZM1169.48 12H1168.31V2.25H1169.48V12ZM1173.44 12H1172.27V5.13184H1173.44V12ZM1172.17 3.31006C1172.17 3.11963 1172.23 2.95882 1172.34 2.82764C1172.46 2.69645 1172.64 2.63086 1172.86 2.63086C1173.09 2.63086 1173.27 2.69645 1173.38 2.82764C1173.5 2.95882 1173.56 3.11963 1173.56 3.31006C1173.56 3.50049 1173.5 3.65918 1173.38 3.78613C1173.27 3.91309 1173.09 3.97656 1172.86 3.97656C1172.64 3.97656 1172.46 3.91309 1172.34 3.78613C1172.23 3.65918 1172.17 3.50049 1172.17 3.31006ZM1178.88 11.1685C1179.3 11.1685 1179.67 11.0415 1179.98 10.7876C1180.29 10.5337 1180.47 10.2163 1180.5 9.83545H1181.61C1181.59 10.229 1181.45 10.6035 1181.2 10.959C1180.96 11.3145 1180.62 11.598 1180.2 11.8096C1179.79 12.0212 1179.35 12.127 1178.88 12.127C1177.95 12.127 1177.2 11.8159 1176.65 11.1938C1176.1 10.5675 1175.82 9.71273 1175.82 8.62939V8.43262C1175.82 7.764 1175.94 7.16943 1176.19 6.64893C1176.44 6.12842 1176.79 5.72428 1177.24 5.43652C1177.71 5.14876 1178.25 5.00488 1178.88 5.00488C1179.65 5.00488 1180.28 5.23551 1180.79 5.69678C1181.3 6.15804 1181.58 6.75684 1181.61 7.49316H1180.5C1180.47 7.04883 1180.3 6.6849 1179.99 6.40137C1179.69 6.11361 1179.32 5.96973 1178.88 5.96973C1178.28 5.96973 1177.82 6.18555 1177.49 6.61719C1177.16 7.0446 1177 7.66455 1177 8.47705V8.69922C1177 9.49056 1177.16 10.0999 1177.49 10.5273C1177.81 10.9548 1178.28 11.1685 1178.88 11.1685ZM1185.98 10.2798L1187.58 5.13184H1188.83L1186.07 13.0601C1185.65 14.2026 1184.97 14.7739 1184.04 14.7739L1183.81 14.7549L1183.38 14.6724V13.7202L1183.69 13.7456C1184.09 13.7456 1184.4 13.6652 1184.62 13.5044C1184.84 13.3436 1185.03 13.0495 1185.17 12.6221L1185.43 11.9238L1182.98 5.13184H1184.26L1185.98 10.2798Z" fill="#707A7F"/>
</svg>
